<?xml version="1.0" encoding="UTF-8"?>
<svg class="svg-bg" viewBox="0 0 1920 1080" version="1.1" xmlns="http://www.w3.org/2000/svg" xmlns:xlink="http://www.w3.org/1999/xlink">
    <!-- Generator: Sketch 48.1 (47250) - http://www.bohemiancoding.com/sketch -->
    <title>Group</title>
    <desc>Created with Sketch.</desc>
    <defs>
        <linearGradient x1="30.2248203%" y1="87.259253%" x2="87.261217%" y2="12.1247221%" id="linearGradient-1">
            <stop stop-color="#032B54" offset="0%"></stop>
            <stop stop-color="#145791" offset="100%"></stop>
        </linearGradient>
        <polygon id="path-2" points="0.175159126 0.180354167 1902.34093 0.180354167 1902.34093 1066.81371 0.175159126 1066.81371"></polygon>
        <polygon id="path-4" points="0.0868612316 0.180354167 1689.8021 0.180354167 1689.8021 1066.81371 0.0868612316 1066.81371"></polygon>
        <polygon id="path-6" points="0.581587676 0.8632175 1049.9614 0.8632175 1049.9614 81.9581514 0.581587676 81.9581514"></polygon>
        <polygon id="path-8" points="0.890809376 0.180354167 1616.49452 0.180354167 1616.49452 924.111561 0.890809376 924.111561"></polygon>
        <polygon id="path-10" points="0.175159126 0.45495408 1567.32134 0.45495408 1567.32134 309.605374 0.175159126 309.605374"></polygon>
        <polygon id="path-12" points="0.222066147 0.986894861 212.393991 0.986894861 212.393991 47.8095403 0.222066147 47.8095403"></polygon>
        <polygon id="path-14" points="0.175159126 0.648378194 201.523818 0.648378194 201.523818 116.106763 0.175159126 116.106763"></polygon>
        <polygon id="path-16" points="0.175159126 0.258599028 161.3649 0.258599028 161.3649 155.933436 0.175159126 155.933436"></polygon>
        <polygon id="path-18" points="0.175159126 0.286254444 127.323911 0.286254444 127.323911 141.186393 0.175159126 141.186393"></polygon>
        <polygon id="path-20" points="0.335658569 0.180354167 1169.05521 0.180354167 1169.05521 745.921194 0.335658569 745.921194"></polygon>
        <polygon id="path-22" points="0.76251244 0.177777778 309.248139 0.177777778 309.248139 38.8069533 0.76251244 38.8069533"></polygon>
        <polygon id="path-24" points="0.209738122 0.178470588 805.532876 0.178470588 805.532876 123.776169 0.209738122 123.776169"></polygon>
        <polygon id="path-26" points="0.40026886 0.458669697 922.791548 0.458669697 922.791548 390.813606 0.40026886 390.813606"></polygon>
        <polygon id="path-28" points="0.246647776 0.414727586 1034.77252 0.414727586 1034.77252 385.815276 0.246647776 385.815276"></polygon>
    </defs>
    <g id="Pausa" stroke="none" stroke-width="1" fill="none" fill-rule="evenodd">
        <g id="Group">
            <rect id="bg" fill="url(#linearGradient-1)" transform="translate(960.000000, 540.000000) scale(1, -1) translate(-960.000000, -540.000000) " x="0" y="0" width="1920" height="1080"></rect>
            <g id="Page-1" opacity="0.0571218297" transform="translate(16.000000, 7.000000)">
                <g id="Group-33">
                    <path d="M149.136863,590.414748 C164.025389,589.185398 178.894617,587.959017 193.771268,586.682156 C196.466937,586.483203 199.16706,586.232285 201.879057,586.018485 C203.655883,585.892284 203.008685,589.149764 203.174938,590.540949 C204.772152,606.874378 206.749372,623.038549 209.131833,639.265078 C219.682943,710.703973 241.79901,780.475524 272.867489,845.616227 C288.879705,879.129377 307.097738,911.594313 327.923862,942.408238 C336.597207,955.255539 345.521416,967.777687 354.852351,980.115728 C355.247201,980.657652 360.726119,987.56458 360.472287,987.754624 C358.824603,989.055241 357.187311,990.306862 355.555956,991.595601 C343.107783,1001.32202 330.672969,1011.06031 318.206983,1020.78969 C301.160141,998.227855 284.396819,975.471517 269.613685,951.349235 C250.010707,919.320807 231.823846,886.509931 216.501876,852.20097 C187.144909,786.438169 166.194096,716.711159 155.714237,645.411828 C153.023021,627.111142 150.958221,608.832727 149.136863,590.414748" id="Fill-1" fill="#00BDF1"></path>
                    <g id="Group-5">
                        <mask id="mask-3" fill="white">
                            <use xlink:href="#path-2"></use>
                        </mask>
                        <g id="Clip-4"></g>
                        <path d="M1490.3723,1356.04116 C1474.58571,1331.44377 1458.75608,1306.85083 1442.9591,1282.2668 L1423.46745,1252.03043 C1422.98354,1251.2658 1423.70347,1251.17968 1424.44864,1250.69715 C1427.53174,1248.60369 1430.63116,1246.50281 1433.74989,1244.36778 C1447.12581,1235.31543 1460.39931,1226.27495 1473.2928,1216.52627 C1502.48352,1194.44102 1530.44218,1171.04774 1556.75464,1145.57436 C1580.02557,1123.05558 1602.07187,1099.26439 1622.73916,1074.31363 C1670.73425,1016.2699 1710.87538,951.828504 1742.10862,883.357569 C1773.01976,815.465676 1795.12098,744.011934 1807.96846,670.559756 C1820.93914,596.305829 1824.07122,520.334077 1817.36916,445.254644 C1810.73092,371.236787 1794.54355,298.080069 1769.2568,228.170438 C1743.44458,156.790933 1708.17971,88.8990397 1664.82485,26.6773008 C1620.89999,-36.4100311 1568.61351,-93.6208325 1509.59676,-142.872038 C1452.39988,-190.595464 1389.03978,-230.843314 1321.54711,-262.395146 C1258.85202,-291.699109 1192.67452,-313.439896 1124.83747,-327.137944 C1058.60357,-340.473719 990.843709,-346.140903 923.299084,-343.741592 C848.281993,-341.076516 773.649361,-328.622666 701.829666,-306.721528 C665.319379,-295.600959 628.963469,-282.424049 594.470481,-265.982235 C576.639876,-257.489624 559.00818,-248.824785 541.613988,-239.451734 C524.507769,-230.148464 507.929997,-220.160738 491.280974,-210.091352 C474.581481,-199.892795 458.410434,-188.504976 442.61494,-176.952352 C427.07031,-165.566017 411.874514,-153.668938 397.119584,-141.271507 C368.145592,-116.959181 340.789596,-90.7790742 315.219333,-62.9568644 C265.128276,-8.47201306 222.490388,52.3763578 187.914273,117.797673 C170.368673,151.042088 154.5331,185.555941 141.728671,220.933902 C135.259659,238.735722 129.195887,256.686013 123.901035,274.861983 C118.474071,293.360137 113.719539,311.939951 109.178762,330.724656 C100.22338,367.657122 94.7325869,405.744701 91.3051087,443.584331 C88.26209,476.935647 87.1042585,510.466613 87.908803,543.921859 C89.3501548,605.534862 97.1477047,667.297822 111.991698,727.161822 C112.172795,727.803222 112.324204,728.411958 112.505301,729.051873 L91.124012,734.324122 C88.3229504,734.965522 85.533764,735.655917 82.7490307,736.344829 C82.62731,736.396794 78.9831095,721.377344 78.6981048,720.121269 C70.7387554,685.288201 65.043115,649.717226 61.5859488,614.14922 C57.9892491,576.84112 55.8190573,539.203412 57.0897031,501.694874 C57.6864317,482.681522 58.6141813,463.651837 60.4073357,444.729052 C62.181193,425.843386 64.4701368,407.167065 67.1658061,388.406115 C77.5684769,315.553765 98.3218646,243.708056 126.659049,175.854766 C155.070453,107.844095 191.858322,43.3730022 236.050376,-15.62392 C281.793627,-76.7336019 335.398258,-131.847976 395.093379,-179.393235 C455.352571,-227.361641 521.789834,-267.487744 592.215678,-298.589705 C657.943398,-327.605631 727.144613,-348.678294 797.853977,-361.252406 C829.46723,-366.876534 861.421896,-370.822926 893.471563,-372.854026 C929.330198,-375.106349 965.067113,-375.146437 1000.96137,-373.548876 C1067.38528,-370.276548 1134.10606,-359.501919 1198.01985,-340.988917 C1201.98319,-354.955699 1205.93615,-369.005626 1209.88613,-382.982801 C1211.58132,-389.028589 1213.24978,-395.035776 1214.94794,-401.044446 C1215.14091,-401.694755 1214.92419,-401.509164 1214.19831,-401.728903 C1210.72779,-402.725152 1207.25132,-403.733278 1203.79861,-404.732496 C1197.22866,-406.61067 1190.55777,-408.046396 1183.92547,-409.68256 C1149.97281,-418.019276 1115.72326,-424.318952 1081.12191,-429.165085 C1043.74028,-434.415063 1005.56895,-437.544857 967.80583,-437.617609 C933.591909,-437.674028 899.507131,-436.860401 865.443134,-433.717244 C832.860567,-430.762646 800.465035,-426.027867 768.391618,-419.686619 C697.516001,-405.583242 628.249473,-383.569266 562.309484,-354.060412 C491.886609,-322.529366 425.250436,-282.575491 364.375218,-235.19652 C303.897819,-188.13528 249.111606,-133.874621 201.536606,-73.8086992 C155.713198,-15.9787686 116.664588,47.1412272 85.3541516,113.93888 C54.1743427,180.451466 30.3274668,250.751579 15.1984683,322.673008 C-0.525774259,397.364929 -7.5588585,473.65738 -5.60835772,550.004766 C-3.87309485,617.75858 5.31236849,685.628202 21.664512,751.339038 C14.5230666,753.102888 7.4187312,754.860799 0.293614197,756.609802 C-2.50150983,757.300198 -5.29218066,757.977231 -8.07246069,758.642387 C-8.18527504,758.679505 -11.5281424,744.999274 -11.8131471,743.743199 C-15.7883686,727.388984 -18.8581066,710.642802 -21.8684685,694.098543 C-25.0985215,676.278906 -27.7808312,658.160841 -29.7521136,640.189763 C-33.8475715,602.82079 -36.5343343,565.318191 -36.5135527,527.726509 C-36.4972243,490.41544 -34.7411799,453.327079 -30.7555676,416.204569 C-22.9847368,343.911959 -7.25455663,272.704681 16.1410619,203.871474 C39.7534028,134.38499 71.0326665,67.517555 109.337592,4.91572722 C148.54058,-59.2183339 195.132907,-118.783905 247.857289,-172.370499 C302.374825,-227.704612 363.448953,-276.554942 429.328081,-317.708473 C494.303211,-358.358682 563.91412,-391.450171 636.47453,-416.090621 C706.509977,-439.939714 779.089684,-455.842574 852.696596,-463.227582 C923.677606,-470.394337 995.005964,-469.833112 1065.89197,-461.986355 C1102.27015,-457.943456 1138.69582,-452.013476 1174.27539,-443.565406 C1191.80466,-439.388882 1209.27753,-435.121791 1226.55149,-430.055919 C1234.25552,-427.834774 1241.93283,-425.573542 1249.6146,-423.275192 C1253.30927,-422.195799 1257.00988,-421.055532 1260.69861,-419.778671 C1262.3359,-419.22487 1263.96577,-418.682946 1265.58525,-418.115782 C1265.87174,-418.040062 1267.8074,-417.608007 1267.93506,-417.305124 C1268.14732,-416.864162 1267.13793,-414.938477 1266.99543,-414.491576 C1266.13745,-411.958639 1265.31361,-409.416795 1264.46898,-406.932855 C1261.76589,-398.839634 1259.07022,-390.746413 1256.38791,-382.654677 C1251.00251,-366.517231 1245.62305,-350.330789 1240.23319,-334.230462 C1239.73295,-332.721984 1239.24013,-331.250624 1238.75325,-329.731753 C1238.48457,-328.999785 1244.62553,-327.376984 1245.32468,-327.118642 C1261.33838,-321.605869 1277.08638,-315.646194 1292.8225,-309.377696 C1319.24184,-298.604552 1345.15648,-286.716381 1370.48776,-273.542441 C1431.86173,-241.626852 1489.28275,-202.191145 1541.67908,-156.985807 C1599.34948,-107.194163 1651.12682,-49.8230117 1693.86416,13.2836217 C1711.01491,38.6204064 1727.27502,64.4070619 1741.9201,91.2582633 C1759.39149,123.369836 1774.97619,156.284643 1788.59111,190.231331 C1816.8511,260.570047 1835.8336,334.522576 1845.28032,409.701486 C1853.85272,478.246656 1854.80422,547.728687 1847.43567,616.437177 C1844.34218,645.533279 1839.5253,674.322043 1833.93951,703.041024 C1831.26759,716.975142 1827.79558,730.686552 1824.44826,744.467744 C1824.3399,744.947309 1833.12606,746.878933 1833.87716,747.109065 C1851.41386,751.552838 1868.95649,756.047092 1886.51248,760.501259 C1893.79494,762.379433 1901.08334,764.257606 1908.38362,766.085299 C1910.10107,766.542594 1911.8393,766.961286 1913.56566,767.428973 C1915.07678,767.801638 1912.44345,774.475465 1912.15251,775.639487 C1908.37323,791.401298 1903.24018,806.91813 1898.58807,822.464656 C1895.9117,831.377444 1892.6282,840.155122 1889.58222,848.965463 C1886.61342,857.596154 1883.70548,866.266931 1880.35371,874.783298 C1873.5032,892.163456 1866.59926,909.551038 1858.89374,926.554077 C1851.05612,943.894148 1842.8934,960.915004 1834.20967,977.803719 C1799.5623,1045.23089 1757.05801,1108.85124 1707.6661,1166.40204 C1663.64921,1217.68138 1614.39387,1265.40035 1560.50275,1306.25248 C1546.07736,1317.20528 1531.6386,1327.99327 1516.70109,1338.25716 C1507.94017,1344.16635 1499.13471,1350.08742 1490.3723,1356.04116" id="Fill-3" fill="#00BDF1" mask="url(#mask-3)"></path>
                    </g>
                    <g id="Group-8" transform="translate(109.361154, 0.000000)">
                        <mask id="mask-5" fill="white">
                            <use xlink:href="#path-4"></use>
                        </mask>
                        <g id="Clip-7"></g>
                        <path d="M1293.97146,1220.73531 C1316.43191,1205.53769 1338.63704,1190.17527 1359.95895,1173.4573 C1383.60543,1154.8953 1406.13565,1135.00596 1427.49615,1113.90063 C1480.66437,1061.39789 1526.9524,1001.75362 1564.16184,936.963316 C1601.16049,872.466983 1629.42197,802.903293 1648.09423,730.950684 C1666.23804,660.941577 1675.42054,588.553945 1674.77482,516.198977 C1674.13356,443.269422 1663.9016,370.540304 1644.65191,300.216436 C1626.4502,233.818173 1598.86561,170.618002 1565.38795,110.626316 C1546.59842,76.9795413 1524.31165,45.2346954 1501.11494,14.508369 C1477.87964,-16.2877393 1451.50483,-45.1106518 1423.96774,-72.1518976 C1382.28877,-113.02927 1335.95918,-149.113959 1286.62071,-180.199588 C1226.08246,-218.35398 1160.44974,-248.31122 1092.20448,-269.731307 C1037.04568,-287.032775 979.89185,-298.387931 922.353561,-303.755202 C871.361474,-308.481073 819.898832,-308.990332 768.906745,-304.029875 C747.893587,-301.980959 727.109027,-299.1392 706.219074,-296.012375 C683.221275,-292.242666 660.526293,-287.022382 637.923344,-281.334412 C602.432839,-272.409746 567.384685,-260.923935 533.619053,-246.915581 C504.716312,-234.950205 476.595851,-221.77478 449.088446,-206.906771 C422.48504,-192.540599 397.103295,-176.478874 372.088197,-159.514438 C346.446682,-142.082314 322.521133,-122.510706 298.795978,-102.608005 C291.372496,-96.3795949 284.349803,-89.5736282 277.223202,-82.9636449 C272.973366,-78.9920129 268.517199,-75.2059712 264.467758,-71.038356 C250.446121,-56.7657212 236.503158,-42.5005101 223.262316,-27.449881 C191.801955,8.19681486 163.507819,46.2383676 138.348734,86.6302357 C112.585498,127.978265 91.284367,172.108663 73.1657882,217.242734 C62.4766283,243.93507 53.78547,271.270291 45.716275,298.875732 C40.3575932,317.084365 35.7381424,335.879463 32.1562867,354.514212 C25.0875768,391.415498 19.4631876,428.379143 16.8907235,465.883226 C14.4488865,501.593765 14.2381018,537.489894 16.3919653,573.250913 C19.8001463,629.76835 29.2394419,685.442463 43.739055,740.129237 C63.6255534,815.116618 95.4243569,887.228091 135.641189,953.434825 C171.110912,1011.87349 213.584032,1066.35686 262.563273,1114.13225 C276.384516,1127.58977 290.542717,1140.51725 305.052721,1153.26656 C312.19862,1159.54396 319.593897,1165.4977 327.053004,1171.43065 C334.378515,1177.2567 341.603087,1183.37821 349.336808,1188.72915 C378.690805,1210.43876 409.446076,1230.26722 441.37996,1248.05865 C504.272477,1283.06543 571.579598,1309.72807 641.38051,1327.27452 C712.563397,1345.19957 785.919446,1353.72484 859.314089,1352.59052 C934.096645,1351.45025 1009.21319,1340.27178 1080.82359,1318.51169 C1114.81336,1308.1706 1148.23016,1296.24234 1180.7578,1281.84053 C1205.67196,1270.73926 1229.67173,1258.05231 1253.624,1245.02685 C1266.68226,1237.93433 1279.23731,1229.76539 1291.92002,1222.00623 C1292.16049,1221.86072 1293.89279,1220.59723 1294.03381,1220.84963 C1294.85616,1222.08343 1295.65032,1223.32763 1296.47119,1224.59855 C1298.32966,1227.51752 1300.20594,1230.43054 1302.07777,1233.30645 C1279.07551,1247.39646 1256.03467,1261.18359 1232.12545,1273.65081 C1205.76103,1287.39933 1178.6559,1299.66611 1150.92435,1310.39916 C1081.30305,1337.40181 1008.0227,1355.35952 933.734451,1363.14392 C860.075585,1370.9016 785.244044,1368.71608 712.115109,1357.09962 C640.335493,1345.63459 569.848788,1325.12167 503.407072,1295.68408 C437.011372,1266.27767 374.466205,1228.36975 317.720585,1183.09314 C263.998688,1140.24406 215.691879,1090.90377 174.06932,1036.24521 C150.667764,1005.1863 128.446305,972.96783 109.573652,938.937997 C90.842016,905.159082 74.0089271,870.52942 59.6429099,834.657047 C36.6926112,777.421005 19.6680347,717.228882 10.4781182,656.186012 C0.234278081,588.197612 -2.79686544,519.750433 3.00565172,451.180022 C7.82252769,394.426515 18.5220784,338.369343 34.5432009,283.762744 C41.836055,258.840197 50.1858015,234.294769 59.8566634,210.230391 C71.3756026,181.548527 84.3581595,153.71147 98.5727679,126.267865 C121.526035,82.1003482 149.125473,39.9431454 180.045512,0.972156528 C189.956847,-11.5440518 200.11756,-23.8212199 210.677578,-35.8014435 C224.339989,-51.3212449 238.694131,-66.1506504 253.193745,-80.8983962 C257.209045,-85.0363171 261.568726,-88.8609615 265.78442,-92.765781 C273.274699,-99.714281 280.623961,-106.866188 288.422995,-113.447962 C300.120062,-123.244159 311.61822,-133.323938 323.747247,-142.582666 C346.623326,-160.04003 369.851207,-177.292502 394.452158,-192.279288 C421.471195,-208.771582 448.747034,-224.594267 477.311331,-238.213624 C509.444124,-253.54932 542.136536,-267.036537 575.820527,-278.641125 C610.920635,-290.772791 647.108807,-299.608373 683.476592,-306.991896 C734.134689,-317.166698 786.44047,-322.28305 838.075302,-322.385496 C891.212347,-322.507243 944.420642,-318.59797 996.687829,-308.598366 C1055.40176,-297.344171 1112.77974,-280.982532 1168.1033,-258.102963 C1201.21283,-244.447973 1233.50297,-228.657952 1264.61895,-210.835346 C1285.22983,-199.061499 1305.75611,-186.650706 1325.09635,-172.882877 C1336.24715,-164.874285 1347.68594,-157.183424 1358.43596,-148.624 C1373.46847,-136.599235 1388.3377,-124.543291 1402.9145,-111.961755 C1431.98052,-86.7986824 1459.56215,-59.0640712 1484.34271,-29.6190601 C1496.84432,-14.7881699 1508.91694,0.206039861 1520.6526,15.6694218 C1532.42835,31.1654676 1543.39509,47.273219 1554.1837,63.4878704 C1575.63476,95.7865176 1593.75927,130.385 1610.45135,165.376933 C1639.79644,226.881551 1660.97436,292.812126 1673.98364,359.709255 C1687.73808,430.579501 1692.72418,503.310104 1688.14926,575.380005 C1683.52833,648.080913 1669.35825,720.279986 1646.41983,789.402713 C1623.31812,858.951557 1591.38275,925.971918 1550.83341,987.048936 C1510.02431,1048.47486 1461.90898,1104.84086 1406.78136,1153.8456 C1390.77211,1168.08112 1374.19434,1181.59951 1357.12523,1194.5062 C1339.19517,1208.07508 1320.7144,1220.72046 1302.07777,1233.30645 C1299.40585,1229.12102 1296.68197,1224.9341 1293.97146,1220.73531" id="Fill-6" fill="#00BDF1" mask="url(#mask-5)"></path>
                    </g>
                    <g id="Group-11" transform="translate(341.411856, 984.855556)">
                        <mask id="mask-7" fill="white">
                            <use xlink:href="#path-6"></use>
                        </mask>
                        <g id="Clip-10"></g>
                        <path d="M0.581587676,64.8710772 C23.0375814,45.5370244 45.5292008,26.2475133 67.9822257,6.93870083 C70.3557803,4.92393278 72.6758966,2.87798556 75.0494512,0.8632175 C96.4144114,26.3336272 120.271678,49.7150328 145.159118,71.6948606 C159.036768,83.9185786 173.324112,95.9819467 188.325452,106.783301 C194.166563,110.982095 200.018066,115.155649 205.857693,119.393047 C206.69341,119.967634 209.875962,121.342487 209.114465,122.453059 C200.035879,135.631454 190.929088,148.763822 181.856439,161.928854 C179.941564,164.749826 178.004423,167.53368 176.094001,170.304172 C174.982186,171.934397 173.567553,172.620338 175.305785,173.860081 C188.212638,182.750598 201.483168,191.442162 215.04761,199.314159 C247.299155,218.055808 280.220164,236.041733 314.909093,249.82144 C331.681322,256.487842 348.380815,262.965686 365.433595,268.84964 C377.66653,273.033587 390.034546,276.733515 402.464906,280.310211 C471.541431,300.367323 543.78418,309.65723 615.636532,309.568147 L618.949711,309.563692 C618.819084,288.869634 618.675097,268.171122 618.53111,247.465186 C652.008769,247.425098 685.415177,244.525436 718.532127,239.624367 C748.407149,235.220681 778.454361,229.274369 807.374915,220.480359 C839.360752,210.728704 871.354012,200.228748 901.754511,186.155066 C918.687055,178.323156 935.336078,170.057708 951.746113,161.182038 C965.959237,153.479299 979.689932,145.089134 993.517112,136.731633 C994.479003,136.108049 996.384971,133.983412 997.185063,135.27512 C998.1425,136.719755 999.101422,138.21784 1000.05144,139.701077 C1004.02369,145.867129 1007.99297,152.021302 1011.96968,158.173991 C1021.97156,173.814055 1032.04173,189.397699 1042.07924,204.990252 C1044.71405,209.101448 1047.32659,213.190373 1049.9614,217.268905 C1022.89338,233.802772 995.725898,250.116899 967.075506,263.789706 C950.028663,271.955679 932.906117,279.650994 915.451064,286.871198 C899.3483,293.598474 882.91303,299.437887 866.341195,304.913542 C832.398919,316.157344 797.738194,325.12952 762.639571,331.844919 C725.062,338.962677 687.211301,342.871951 649.075596,344.919383 C585.973779,348.27634 522.061479,343.125838 460.08929,331.047623 C384.94454,316.381537 311.971467,291.605977 243.87613,256.559109 C181.264164,224.343606 122.884221,184.220473 70.7328178,136.862288 C45.9255354,114.370231 22.143973,90.5018369 0.581587676,64.8710772" id="Fill-9" fill="#00BDF1" mask="url(#mask-7)"></path>
                    </g>
                    <g id="Group-14" transform="translate(145.471139, 0.000000)">
                        <mask id="mask-9" fill="white">
                            <use xlink:href="#path-8"></use>
                        </mask>
                        <g id="Clip-13"></g>
                        <path d="M1185.52536,-161.792002 C1199.58411,-154.058084 1213.51519,-145.841631 1226.99057,-137.130766 C1226.20384,-135.858359 1225.38,-134.581498 1224.56209,-133.316514 C1209.00559,-108.730999 1193.43869,-84.1454838 1177.87476,-59.5718463 C1156.32871,-73.5178421 1133.60255,-86.4007768 1110.36577,-97.3580268 C1117.70018,-112.439835 1125.03608,-127.557277 1132.36456,-142.688081 C1138.32294,-155.002367 1144.32734,-167.297352 1150.3347,-179.666573 C1150.88245,-180.013998 1182.53726,-163.435589 1185.52536,-161.792002 M1329.43194,-59.6609296 C1314.77943,-43.3230463 1300.1106,-26.9213199 1285.48927,-10.5760129 C1280.71395,-5.25328375 1275.97278,0.0531134722 1271.19598,5.37584264 C1270.25784,6.45820514 1269.27814,7.55689958 1268.30437,8.59472042 C1267.94515,8.82039819 1259.77056,1.32848986 1259.09664,0.770234306 C1245.64799,-10.7927824 1231.74362,-21.810906 1217.56315,-32.4637879 C1216.86251,-32.9314754 1207.5865,-39.3232046 1207.8344,-39.6602365 C1208.69832,-40.8554379 1209.52216,-42.0224296 1210.35491,-43.2265393 C1227.20729,-66.922706 1244.04484,-90.6426282 1260.87941,-114.386306 C1284.658,-97.2704282 1307.42127,-79.0380393 1329.43194,-59.6609296 M1387.73024,-1.59492819 C1398.21901,9.70826208 1407.89432,21.7345121 1417.76261,33.5425079 C1405.74788,43.1442065 1393.74206,52.7696607 1381.73624,62.4055079 C1370.15495,71.6865065 1358.55437,80.9556274 1347.00574,90.193569 C1345.41002,91.4778537 1345.00923,89.5610774 1343.77272,88.1015954 C1338.42146,81.6831412 1333.01973,75.2572635 1327.66551,68.8759274 C1317.26877,56.5052218 1305.90866,44.6927718 1294.36301,33.4415468 C1306.49649,21.2356454 1318.59286,9.08319403 1330.69071,-3.11825319 C1340.13891,-12.5729643 1349.54852,-22.0469768 1358.94477,-31.5313824 C1359.74189,-32.0554893 1385.58677,-3.91703375 1387.73024,-1.59492819 M1464.4158,98.3046065 C1473.26133,111.75619 1481.81741,125.722972 1489.46504,139.796654 C1488.14689,140.580587 1486.8332,141.290284 1485.5388,142.069763 C1460.19268,156.324582 1434.84062,170.628395 1409.49896,184.868366 C1403.38472,173.56963 1396.31749,162.714826 1389.6273,151.668493 C1382.67883,140.837444 1375.54481,129.930675 1367.93281,119.548012 C1381.55069,109.7533 1395.18786,99.9585871 1408.80129,90.1653593 C1419.92686,82.1686454 1431.06431,74.1570843 1442.17356,66.1618551 C1442.68716,65.8307621 1462.66421,95.6528926 1464.4158,98.3046065 M1430.37407,214.706829 C1456.4134,201.731841 1482.47797,188.817727 1508.51879,175.854618 C1521.15845,202.307913 1533.05294,228.900773 1542.98357,256.512152 C1541.55558,257.039229 1540.16767,257.548488 1538.75303,258.085958 C1511.38813,267.978662 1484.03362,277.917393 1456.72958,287.862062 C1450.33033,270.115177 1443.35811,252.46183 1435.29337,235.417219 C1434.58828,233.94289 1426.25634,216.770593 1426.32611,216.688933 C1427.68582,216.047533 1429.05295,215.36753 1430.37407,214.706829 M349.324596,-141.923449 C341.160399,-136.391374 333.202534,-130.578687 325.344124,-124.65316 C317.573293,-118.825625 309.588709,-113.08272 302.129602,-106.849856 C287.434048,-94.5088449 272.521772,-82.3994504 258.693107,-69.1319726 C244.889678,-55.9030976 231.452895,-42.5346588 218.142285,-28.8870921 C204.810895,-15.2113157 192.387956,-0.343307361 180.499402,14.5707274 C156.541196,44.5918107 134.223251,75.9046024 114.70043,108.993122 C96.207783,140.313337 79.6314952,172.790151 65.3233696,206.273607 C38.3978493,269.294126 19.8250443,335.980425 9.71183136,403.765418 C7.20319641,420.343826 5.60004509,437.009833 3.9078298,453.699595 C2.2438181,472.055216 0.980594228,490.695904 0.940515445,509.139123 C0.885592668,523.656737 0.746059126,538.196622 1.43333604,552.660786 C1.46599282,553.455112 9.83503651,552.712751 10.7345825,552.69048 C40.3572565,551.625934 69.9576644,550.513877 99.5521348,549.40479 C99.077127,539.688768 99.1558002,529.981654 99.1305654,520.224059 C99.025173,451.819937 110.00676,383.956254 129.217856,318.408737 C139.905532,281.860815 154.468974,246.971327 170.273374,212.401055 C174.011092,204.292987 178.459837,196.345269 182.620608,188.396066 C185.831364,182.241893 189.071808,176.08475 192.738274,170.157738 C195.653635,165.18095 198.540792,160.134379 201.450214,155.108594 C201.868815,154.444923 198.566026,152.899327 197.975235,152.577143 C190.241515,147.892844 182.470684,143.211515 174.741416,138.527216 C171.990824,136.867297 169.201638,135.199954 166.446593,133.516279 C165.41642,132.903088 165.438685,133.084225 166.100728,131.949897 C167.743958,129.125955 169.520784,126.371795 171.315423,123.677025 C188.464689,97.0722871 206.583267,71.395501 226.448984,46.6629982 C248.594739,19.0917065 273.445068,-6.59250319 299.427995,-30.6093699 C327.560332,-56.6127949 357.720359,-80.2451185 389.559241,-101.475162 C452.845124,-143.838741 522.445642,-177.320712 595.61614,-198.660624 C629.271927,-208.505817 663.496239,-215.89231 698.146574,-221.216524 C715.454671,-223.875662 732.845894,-225.724141 750.311337,-227.260828 C751.791283,-227.401877 766.005891,-228.26747 766.072689,-228.165024 C766.213707,-226.021085 766.304256,-223.921688 766.425976,-221.77478 C766.933641,-212.615528 767.4799,-203.425098 767.997955,-194.218335 C768.112254,-191.568106 768.271085,-188.959449 768.415072,-186.313674 C768.467026,-185.681182 778.724225,-186.527474 779.65049,-186.589832 C813.162291,-188.291324 846.993237,-186.766514 880.399645,-183.507549 C947.305978,-176.918352 1012.94612,-160.083087 1075.29089,-135.145692 C1069.35775,-120.466243 1063.44984,-105.874393 1057.54935,-91.2721504 C1058.41772,-90.9455115 1059.28313,-90.5832393 1060.13814,-90.2551157 C1127.61003,-63.2435643 1190.15075,-23.7321365 1244.89836,23.9408093 C1273.93025,49.2182051 1300.47131,77.114651 1324.54233,107.15949 C1348.17842,136.741095 1369.95011,168.178604 1387.97814,201.500225 C1396.73906,217.700029 1404.8513,234.162629 1412.88933,250.77964 C1420.87391,267.355079 1427.1648,285.003972 1433.38888,302.30544 C1436.13799,309.858222 1438.72678,317.442183 1441.0083,325.173132 C1441.48777,326.724666 1444.25023,337.295888 1445.01618,337.1296 C1451.81622,335.137102 1458.58508,333.186177 1465.38214,331.156562 C1473.10696,328.89533 1480.84513,326.631129 1488.57143,324.38029 C1488.80448,324.316447 1489.82129,323.838366 1490.07513,323.967537 C1490.9242,324.344657 1491.8564,329.830705 1492.13399,330.706691 C1494.3116,337.577986 1495.82272,344.775919 1497.57728,351.74669 C1506.00867,384.879751 1511.31836,418.605216 1514.86905,452.554875 C1522.73785,527.370027 1517.45784,603.60012 1501.23484,676.98994 C1485.87873,746.348738 1460.16596,813.936263 1424.51663,875.348829 C1427.23308,876.866215 1429.90648,878.437051 1432.60363,879.954437 C1458.33124,894.690305 1484.05292,909.389055 1509.77904,924.111561 C1541.85988,868.575526 1566.81412,808.812487 1584.55566,747.245511 C1605.35358,675.199365 1616.66767,600.016001 1616.49251,524.97814 C1616.27876,448.534247 1606.82759,371.673147 1584.8941,298.344201 C1565.74387,234.330402 1540.31314,171.535561 1505.70437,114.195588 C1495.83311,97.9571815 1485.82826,81.8939718 1475.12574,66.184126 C1464.13079,49.9932301 1452.45599,34.3754371 1440.3047,19.0352871 C1416.21438,-11.3139199 1390.09934,-39.9735129 1361.76216,-66.4743199 C1307.98534,-116.806403 1247.46044,-160.130598 1182.0964,-194.060955 C1119.75459,-226.463532 1053.03529,-250.569482 984.457526,-265.897755 C912.435952,-282.005506 838.432706,-288.248763 764.72337,-284.192502 C688.8765,-280.0041 613.402214,-265.447884 541.75174,-240.07992 C508.703072,-228.390702 476.86419,-214.232391 445.335547,-199.128312 C429.54896,-191.507232 414.035502,-182.628593 399.010412,-173.611875 C382.125369,-163.477162 365.636661,-152.947512 349.324596,-141.923449" id="Fill-12" fill="#00BDF1" mask="url(#mask-9)"></path>
                    </g>
                    <g id="Group-17" transform="translate(0.000000, 757.208333)">
                        <mask id="mask-11" fill="white">
                            <use xlink:href="#path-10"></use>
                        </mask>
                        <g id="Clip-16"></g>
                        <path d="M-97.3880289,87.4367368 C-64.851479,77.4668271 -32.3535235,67.488009 0.163729251,57.5210687 C32.0664406,47.7501118 63.9676676,37.9657924 95.8570194,28.1844424 C99.5665335,27.0278437 103.305735,25.9172715 107.021187,24.7606729 C107.894014,24.5097549 108.728246,24.2499285 109.592167,23.9871326 C110.482806,23.7332451 110.418977,25.1036437 110.62234,25.8281882 C115.097804,40.5150604 120.122496,54.9762549 125.341644,69.4151785 C131.485573,86.4568201 138.526079,103.033744 145.501272,119.693812 C152.491309,136.474142 160.645115,153.077791 169.092831,169.218206 C177.804771,185.827794 186.789841,202.247337 196.512657,218.270459 C206.472977,234.695941 216.789552,250.757666 227.607855,266.650133 C238.246545,282.331769 249.657123,297.441787 261.199813,312.461237 C283.986828,342.180922 309.69514,369.894747 336.340109,396.09564 C362.884139,422.235659 390.974913,446.683095 420.707432,469.145458 C478.088374,512.410263 540.670652,548.98788 606.787285,577.242144 C672.197343,605.238066 741.128397,625.04723 811.298924,636.654788 C882.272512,648.412303 954.383149,651.15904 1026.07519,645.520065 C1101.08189,639.533665 1175.53045,623.751067 1246.4788,598.706773 C1304.28874,578.297781 1359.6984,551.92763 1412.06356,520.161998 C1415.18673,518.25413 1414.77407,517.87998 1416.46183,520.65641 C1418.38858,523.83817 1420.37025,527.013991 1422.32669,530.186842 C1429.64627,542.22497 1437.00146,554.209648 1444.36409,566.201749 C1464.34707,598.846337 1484.35974,631.526558 1504.38281,664.203809 C1515.33916,682.081349 1526.28215,699.996008 1537.26819,717.906212 C1521.34207,727.540574 1505.3922,736.986377 1488.99255,745.842745 C1423.72203,781.311274 1355.30606,810.692442 1284.26864,832.574278 C1211.97097,854.796116 1137.55506,870.133297 1062.16539,877.233238 C989.59904,884.074838 916.382525,884.242612 843.831021,876.952626 C774.080579,869.879409 704.998116,856.337258 637.735527,836.560758 C567.339371,815.877092 499.092626,788.184053 434.190232,753.971599 C367.067176,718.574337 303.546758,676.420103 244.800168,628.407156 C214.960772,603.970113 186.58054,577.619263 159.487283,550.177142 C133.106537,523.403147 108.461055,495.194909 84.526599,466.24728 C72.6083564,451.826173 61.5213775,436.55432 50.3646317,421.524477 C38.7863166,405.894806 27.901216,389.531683 17.2239313,373.278428 C-3.60367637,341.46974 -22.3516405,308.22384 -39.8823971,274.486497 C-70.1121904,216.352198 -94.3598542,155.03614 -113.665952,92.4417354 C-108.255317,90.7743924 -102.820931,89.1055646 -97.3880289,87.4367368 M-100.487455,179.733009 C-72.2051935,250.264738 -37.9378339,318.596109 3.78863253,382.14222 C23.9972456,412.870031 45.2464227,442.969805 68.1685179,471.814988 C92.1059422,501.859827 117.941913,530.281865 144.371644,558.228791 C171.911706,585.457112 199.905994,612.124208 229.772109,636.83444 C258.861884,661.013141 289.180741,683.754631 320.531256,704.87629 C382.754309,746.867203 449.18415,782.812328 518.547164,811.636726 C586.84141,840.029069 658.010938,861.640685 730.492675,876.199872 C803.59786,890.906045 878.312134,898.680051 952.906172,898.740924 C1028.38046,898.812191 1104.28225,891.535567 1178.25729,876.410702 C1214.25546,869.077659 1249.89886,859.994128 1285.03608,849.307098 C1321.42613,838.207315 1356.93742,825.051191 1392.05979,810.536547 C1426.62997,796.228278 1460.3481,779.881487 1493.18598,762.023248 C1518.42374,748.292537 1542.8807,733.482433 1567.32134,718.428834 L1423.28413,494.574295 C1423.00506,494.09176 1402.79793,506.829192 1400.91423,507.962035 C1346.55553,540.910991 1288.31957,567.612235 1228.00991,587.811881 C1161.86062,609.972845 1093.09433,623.849059 1023.51757,629.43013 C948.855246,635.418015 873.686746,631.584462 800.017489,618.227901 C727.869742,605.168284 657.160377,583.148369 590.568737,552.309203 C525.755407,522.328208 464.595184,484.210934 409.019271,439.306995 C351.510671,392.867853 300.263267,338.809117 256.443797,279.368263 C216.354623,224.956163 182.868058,165.874612 156.377466,103.758288 C144.632899,76.2048132 134.362339,48.0559646 125.595477,19.4082493 C123.765212,13.3906701 121.970573,7.36863681 120.155153,1.37481319 C119.882023,0.473586806 120.073511,0.328084028 119.319436,0.541884028 C117.026039,1.17140625 114.729673,1.82616875 112.430338,2.45866042 C84.6542573,10.2994785 56.925677,18.1358424 29.1421739,25.9647826 C-7.69171225,36.326659 -44.524114,46.7004132 -81.3713597,57.1127701 C-99.7437707,62.2944507 -118.160714,67.4805854 -136.564297,72.6667201 C-125.717791,108.761802 -114.506123,144.727713 -100.487455,179.733009" id="Fill-15" fill="#00BDF1" mask="url(#mask-11)"></path>
                    </g>
                    <g id="Group-20" transform="translate(35.625585, 1019.004167)">
                        <mask id="mask-13" fill="white">
                            <use xlink:href="#path-12"></use>
                        </mask>
                        <g id="Clip-19"></g>
                        <path d="M174.8572,0.986894861 C183.647813,13.9307032 192.520068,26.8017601 201.983114,39.3209379 C205.432858,43.8923976 208.882602,48.4638574 212.324924,53.0353171 C212.608444,53.3946199 211.947887,53.6217824 211.630225,53.8934865 C204.396747,59.508706 197.164753,65.1254101 189.9194,70.7807171 C160.762827,93.4568796 131.55727,116.09147 102.376947,138.770602 C83.823439,153.230312 65.243212,167.655873 46.6615006,182.082918 C46.6436878,182.084403 46.6436878,182.084403 46.6288438,182.123006 C30.5349858,161.054798 15.1165295,139.636195 0.222066147,117.724664 C19.0264374,105.113434 37.8055739,92.5912865 56.5965856,80.0186588 C87.5047495,59.3780504 118.415882,38.689931 149.306233,18.0404143 C157.831139,12.3539282 166.342685,6.65853375 174.8572,0.986894861" id="Fill-18" fill="#00BDF1" mask="url(#mask-13)"></path>
                    </g>
                    <g id="Group-23" transform="translate(0.000000, 950.706944)">
                        <mask id="mask-15" fill="white">
                            <use xlink:href="#path-14"></use>
                        </mask>
                        <g id="Clip-22"></g>
                        <path d="M168.919899,0.648378194 C176.422053,14.4696574 184.369528,27.8707601 192.547084,41.2911643 C195.52182,46.1521449 198.498041,51.0146101 201.469808,55.9127088 C201.716219,56.2764657 201.060114,56.4783879 200.697921,56.6803101 C192.999826,61.6407671 185.30173,66.601224 177.59176,71.561681 C146.506953,91.5608893 115.435505,111.569006 84.3506977,131.56673 C64.5844356,144.293768 44.8003607,157.022292 25.0192546,169.738938 C25.0014418,169.740423 24.983629,169.743392 24.983629,169.743392 C20.9802039,163.310091 -16.3643156,101.989578 -15.2762509,101.429838 L4.02094103,90.8823713 C35.6475541,73.5705101 67.2652608,56.2824046 98.8963271,38.957181 C121.929752,26.3548588 145.006225,13.7480824 168.058947,1.14427542 C168.342468,0.951261528 168.625988,0.80575875 168.919899,0.648378194" id="Fill-21" fill="#00BDF1" mask="url(#mask-15)"></path>
                    </g>
                    <g id="Group-26" transform="translate(0.000000, 878.955556)">
                        <mask id="mask-17" fill="white">
                            <use xlink:href="#path-16"></use>
                        </mask>
                        <g id="Clip-25"></g>
                        <path d="M133.46116,0.258599028 C141.776766,20.0113435 151.239812,39.5146546 161.3649,58.4374393 C141.34629,68.9106699 121.346977,79.380931 101.323914,89.9046421 C68.4029045,107.174931 35.4789264,124.422949 2.5594014,141.694723 C-6.04863058,146.186007 -14.650725,150.701048 -23.2483661,155.180455 C-23.7070456,155.44325 -24.1686938,155.683775 -24.6244044,155.933209 C-24.7387031,155.997052 -31.6842078,142.575163 -32.1710908,141.626425 C-40.281849,125.128192 -48.6122983,108.629959 -55.8472608,91.7560907 C-56.2970339,90.7182699 -59.6458388,84.3666282 -58.758168,83.9419976 C-57.9194824,83.6198129 -57.0748591,83.2367546 -56.2435955,82.855181 L-44.7662195,77.884331 C-30.8900541,71.8296337 -16.9856852,65.7704824 -3.05608144,59.7083615 C31.4146409,44.6710949 65.8601284,29.6843087 100.32046,14.6589199 C111.365876,9.83802681 122.418713,5.06612958 133.46116,0.258599028" id="Fill-24" fill="#00BDF1" mask="url(#mask-17)"></path>
                    </g>
                    <g id="Group-29" transform="translate(0.000000, 803.719444)">
                        <mask id="mask-19" fill="white">
                            <use xlink:href="#path-18"></use>
                        </mask>
                        <g id="Clip-28"></g>
                        <path d="M104.557678,0.286254444 C111.806,20.6076475 119.055807,40.8429267 127.323911,60.7604753 C106.40724,69.4267989 85.5291623,78.0871836 64.6807731,86.7445989 C30.3421623,100.9816 -4.00683924,115.194846 -38.3513876,129.433332 C-47.7981052,133.361907 -57.2537293,137.268211 -66.7152909,141.186393 C-76.8908486,116.550398 -86.0006076,91.5907322 -94.7912207,66.4321142 C-73.3535249,59.3128711 -51.8965319,52.2025364 -30.4528985,45.0818086 C4.82533705,33.4089225 40.1109946,21.6499225 75.3936834,9.97555167 C85.1061085,6.72697944 94.820018,3.52591833 104.557678,0.286254444" id="Fill-27" fill="#00BDF1" mask="url(#mask-19)"></path>
                    </g>
                    <g id="Group-32" transform="translate(16.328393, 0.000000)">
                        <mask id="mask-21" fill="white">
                            <use xlink:href="#path-20"></use>
                        </mask>
                        <g id="Clip-31"></g>
                        <path d="M1164.61834,-368.802367 C1136.44295,-375.632089 1108.21264,-381.744691 1079.57561,-386.333967 C1052.37102,-390.641146 1024.9601,-393.597228 997.486841,-395.331384 C926.798258,-399.824153 855.876625,-396.321693 785.998524,-384.708196 C712.672164,-372.520112 641.199818,-351.408846 573.021355,-321.77973 C502.406992,-291.172181 435.616443,-251.641452 374.68927,-204.599513 C314.100541,-157.79513 259.430112,-103.43648 212.321213,-43.0721282 C166.972812,15.0933496 128.745075,78.7047885 98.668175,146.01764 C68.551196,213.459662 47.250065,284.117593 33.3798372,356.551251 C26.0869831,394.658132 21.7718341,433.39008 19.6313302,472.133907 C17.642235,507.838507 18.0860704,543.410966 19.8539901,579.131898 C22.5674722,633.781554 31.3655073,688.671734 44.5707241,741.708982 C41.1788715,742.54488 37.7929566,743.379294 34.3951664,744.216677 C32.4506032,744.694758 30.5119776,745.147598 28.5896804,745.659827 C27.0652023,746.038432 27.1898918,746.219568 26.8009792,744.659125 C22.9771664,729.255132 19.7352381,713.793234 16.7189386,698.231861 C9.72147995,662.142718 4.65374048,625.367633 2.39448463,588.672723 C-2.15965265,514.675652 0.59390819,440.160413 13.1400517,367.014088 C16.6551094,348.276894 20.061806,329.504066 24.5150041,310.96137 C28.6564784,293.560426 33.0755353,276.27529 38.0764768,259.128233 C48.3975057,223.716123 60.7877873,188.927597 75.1879456,154.991301 C103.931855,87.2107621 140.664802,22.943076 184.528804,-36.1741088 C229.990019,-97.4471101 283.008311,-153.104892 341.987952,-201.509806 C401.666744,-250.475945 467.351417,-292.071923 537.076624,-325.175289 C604.535154,-357.224503 675.746245,-381.201282 748.941978,-396.121256 C820.012052,-410.592843 892.431444,-416.86431 964.944354,-414.822817 C1025.41136,-413.07233 1086.19603,-405.945663 1145.097,-392.001152 C1153.08752,-390.145249 1161.07062,-388.155721 1169.05521,-386.200342 C1167.5619,-380.423288 1166.10422,-374.591299 1164.61834,-368.802367" id="Fill-30" fill="#00BDF1" mask="url(#mask-21)"></path>
                    </g>
                </g>
                <path d="M1461,854.968924 C1452.02818,872.297703 1441.08912,888.624503 1430.43918,905 C1419.78031,897.809066 1409.1095,890.666829 1398.41188,883.480322 C1391.30298,878.71096 1384.206,873.938647 1377.11201,869.189945 C1374.92121,867.70247 1372.74681,866.248937 1370.57987,864.759987 C1369.12977,863.814083 1368.47551,863.99559 1369.49192,862.431381 C1378.47715,848.5719 1387.78877,834.730126 1395.36265,820 L1461,854.968924 Z" id="Fill-34" fill="#00BDF1"></path>
                <path d="M1494,780.752205 C1488.85378,795.605464 1482.3284,810.059419 1475.79707,824.32713 C1474.38517,827.435154 1473.01046,830.52679 1471.58666,833.636304 C1471.24001,834.382767 1471.2415,835.322922 1470.4381,834.890838 C1468.79113,834.111597 1467.13226,833.299577 1465.45554,832.489047 C1450.15377,824.964826 1434.83861,817.488283 1419.5413,809.999821 L1404,802.398123 C1408.00658,794.853042 1411.14579,786.694105 1414.71496,778.988111 C1417.86458,771.004987 1421.40548,763.10381 1424.18763,755 C1447.45941,763.592511 1470.72822,772.161184 1494,780.752205" id="Fill-36" fill="#00BDF1"></path>
                <path d="M740,45.2651034 C751.858424,40.1982909 763.727261,35.5027979 775.786499,31.0025807 C776.787592,30.6194262 787.738636,26.6858043 787.838299,27.02014 C788.242902,28.2065878 788.632629,29.3974737 789.007481,30.573566 C793.514634,44.2221537 798.01435,57.8663034 802.548278,71.5296847 C804.352627,77.0447438 806.173339,82.5701584 808,88.0866969 C795.164282,92.070617 782.676642,97.053106 770.330315,102.318153 C770.119088,102.442419 766.394365,104.051964 766.342302,103.998707 C766.206939,103.667331 766.083476,103.353706 765.933237,103.023808 C765.110644,101.227864 764.316314,99.4200841 763.484797,97.618222 C757.378571,83.9666755 751.230695,70.3092116 745.133395,56.6458303 C743.403421,52.8497891 741.710636,49.0330368 740,45.2651034" id="Fill-38" fill="#00BDF1"></path>
                <path d="M678,78.9981658 C689.116413,72.0669554 700.367437,65.4298325 711.896555,59.2047308 C712.810719,58.7180681 722.407964,53.7335082 722.552928,54.0111747 C723.160892,55.2338026 723.746667,56.4325452 724.332442,57.611881 C730.758217,70.760729 737.160324,83.8886774 743.602371,97.0285684 C746.057893,102.062392 748.517852,107.085765 751,112.130038 C739.197224,117.916248 727.740588,124.341389 716.548734,131.263642 C716.320932,131.418897 712.192401,134 712.192401,134 C712.016373,133.716362 711.827031,133.455117 711.679108,133.183422 C710.651044,131.535337 709.636292,129.903674 708.637812,128.285446 C700.689909,115.508313 692.778987,102.7685 684.844397,89.9928599 C682.557508,86.344383 680.276535,82.6645566 678,78.9981658" id="Fill-40" fill="#00BDF1"></path>
                <path d="M621,120.78904 C631.023651,112.392812 641.26347,104.22599 651.870476,96.5756987 C652.692209,95.9703651 661.581721,89.7838269 661.746068,90.0058319 C662.49377,91.0936562 663.217783,92.1637201 663.965485,93.2752249 L688.567108,129.256309 C691.707457,133.841451 694.830039,138.438434 698,143.033936 C687.33673,150.252058 677.003634,157.890508 667.142849,166.123932 C666.596508,166.572382 663.257759,170.140742 662.515979,169.995699 C662.350152,169.960178 662.067358,169.479167 661.984444,169.360765 C660.783679,167.944373 659.594758,166.529461 658.398435,165.12639 C648.767142,153.706455 639.163981,142.32056 629.565262,130.943546 L621,120.78904 Z" id="Fill-42" fill="#00BDF1"></path>
                <path d="M570,170.306964 C581.358669,157.597453 593.296726,145.544003 605.846688,134 C613.307789,142.165957 620.760022,150.351166 628.187128,158.515642 C633.182873,163.989232 638.160882,169.47467 643.155149,174.951222 C644.711516,176.655795 646.266405,178.341116 647.802079,180.06198 C648.561787,180.885388 649.532853,181.255625 648.647513,182.096805 C638.570297,191.315717 628.871457,200.927081 619.790434,211.145634 C618.281364,212.796893 618.399606,213.707677 616.859498,212.321508 L612.22587,208.164482 C601.111077,198.209538 590.008107,188.256075 578.897747,178.290764 C575.919515,175.645788 572.923546,172.966749 570,170.306964" id="Fill-44" fill="#00BDF1"></path>
                <path d="M527,226.104303 C536.427149,211.84972 546.689071,198.284468 557.484773,185 C566.029702,192.067123 574.583528,199.159502 583.095837,206.202855 C588.826559,210.962801 594.564695,215.691549 600.26428,220.42624 C602.062822,221.922265 603.828744,223.375207 605.61839,224.86529 C606.475404,225.56502 607.492551,225.80272 606.733398,226.766892 C597.467865,238.125989 588.6857,249.758441 580.627104,262 C562.73361,250.030311 544.866805,238.075478 527,226.104303" id="Fill-46" fill="#00BDF1"></path>
                <path d="M491,287.982939 C498.247804,272.53777 506.615319,257.675887 515.352621,243 C524.770328,248.806074 534.204306,254.61066 543.623493,260.419711 C549.940915,264.31225 556.252421,268.218182 562.544698,272.094354 C564.523792,273.308541 566.459991,274.518263 568.455356,275.723522 C569.372425,276.315736 570.437409,276.402038 569.81321,277.461476 C562.342055,290.028903 555.165251,302.731737 549.003138,316 L491,287.982939 Z" id="Fill-48" fill="#00BDF1"></path>
                <path d="M465,353.683194 C469.888922,337.401632 476.313809,321.67865 482.82791,306 C493.109812,310.427261 503.363462,314.832356 513.654285,319.230062 L534.151178,328.052073 C536.275956,328.962351 538.347205,329.843075 540.439271,330.750397 C541.829521,331.354786 542.366291,331.090273 541.741794,332.562086 C536.2596,345.858646 530.764024,359.177371 526.670593,373 C506.103816,366.549735 485.535552,360.105382 465,353.683194" id="Fill-50" fill="#00BDF1"></path>
                <path d="M449,422.3621 C449.480192,418.432166 450.445021,414.505224 451.19495,410.612689 C452.262043,405.108986 453.186857,399.591819 454.517758,394.156931 C456.315513,386.768295 458.092519,379.37218 459.879899,372 C470.562682,374.920149 481.260286,377.876202 491.910464,380.794855 C499.082216,382.769546 506.246557,384.735261 513.413863,386.717432 L520.08171,388.536541 C520.751607,388.729522 522.169951,388.708579 521.98321,389.510423 C520.314395,396.323107 518.663366,403.126815 517.041978,409.938003 C515.99267,414.215004 515.315363,418.619163 514.467617,422.953012 C513.857003,426.274083 512.994436,429.62657 512.609097,433 C491.430272,429.45902 470.223287,425.906072 449,422.3621" id="Fill-52" fill="#00BDF1"></path>
                <g id="Group-56" transform="translate(932.000000, 0.000000)">
                    <mask id="mask-23" fill="white">
                        <use xlink:href="#path-22"></use>
                    </mask>
                    <g id="Clip-55"></g>
                    <path d="M309.248139,3.43511111 C303.631057,13.3151111 298.018426,23.1936296 292.41766,33.0884444 C291.385316,34.8602963 290.373737,36.6484444 289.360675,38.4262222 C288.665029,39.6662222 286.407517,37.526963 285.462684,36.9847407 C274.14101,30.6188148 262.565699,24.4691852 250.713019,19.1980741 C224.469813,7.50325926 197.777182,-2.716 170.077421,-10.4019259 C160.345794,-13.0922963 150.593402,-15.4641481 140.757947,-17.7204444 C129.546033,-20.3041481 118.049335,-22.713037 106.616416,-24.1678519 C89.366177,-26.393037 72.1456029,-28.5056296 54.7529713,-29.4745185 C37.4878995,-30.396 19.8698134,-30.7767407 2.58249282,-29.6878519 C2.07966986,-41.036 1.57833014,-52.356 1.07105742,-63.7071111 C0.983545455,-65.7693333 0.887133971,-67.8345185 0.796655502,-69.8908148 C0.777373206,-70.4004444 0.623114833,-70.5234074 1.17785167,-70.5397037 C3.81062679,-70.7174815 6.43598565,-70.7234074 9.05837799,-70.7797037 C22.1614402,-71.0167407 35.1829234,-70.9648889 48.2934019,-70.5722963 C72.1767512,-69.8285926 96.2633062,-67.5011852 119.799574,-63.3619259 C133.903833,-60.8567407 147.831584,-57.9945185 161.833498,-54.8434074 C171.304072,-52.7219259 180.57589,-49.8152593 189.958952,-47.3204444 C201.565411,-44.2152593 213.171871,-40.073037 224.411967,-35.8448889 C235.732158,-31.6034074 246.905507,-27.1752593 257.930531,-22.2997037 C275.465555,-14.4982222 292.508139,-5.94118519 309.248139,3.43511111" id="Fill-54" fill="#00BDF1" mask="url(#mask-23)"></path>
                </g>
                <g id="Group-59" transform="translate(594.000000, 0.000000)">
                    <mask id="mask-25" fill="white">
                        <use xlink:href="#path-24"></use>
                    </mask>
                    <g id="Clip-58"></g>
                    <path d="M805.532876,71.6284753 C789.377252,87.3784753 773.190456,103.095864 757.036316,118.826593 C755.327834,120.46904 753.660913,122.133722 751.950946,123.776169 C734.489097,105.454287 715.229705,88.8371106 695.254858,73.3331812 C684.119292,64.7118165 672.677952,56.2312753 660.754199,48.7439106 C656.112648,45.8340518 651.463676,42.9434635 646.820641,40.00544 C646.157138,39.6081694 643.670858,38.7157929 644.197801,37.8367576 C650.473617,27.3965459 656.773182,16.9919106 663.046029,6.56355765 C664.367097,4.33113412 665.707462,2.12391059 667.02853,-0.0699717647 C667.795937,-1.36110118 668.839432,-1.94959529 667.45899,-2.80787765 C657.218486,-8.94481882 646.712283,-14.9112894 636.020537,-20.2433129 C610.599624,-32.9381835 584.705204,-45.0282541 557.667838,-53.83936 C544.5952,-58.1011247 531.58639,-62.2265129 518.337116,-65.8819953 C508.832847,-68.4761129 499.251392,-70.6966776 489.628375,-72.8194071 C436.138475,-84.75976 380.754548,-88.3737365 326.11428,-84.8842776 L323.595344,-84.7241835 C324.681885,-69.0156894 325.777333,-53.3057129 326.874265,-37.5912894 C301.416243,-35.9651482 276.148217,-32.1732894 251.197841,-26.87536 C228.686246,-22.1081129 206.119731,-16.1623953 184.544758,-8.10728941 C160.683893,0.81944 136.854199,10.3168753 114.404946,22.4499341 C101.900814,29.2035341 89.6326921,36.2728753 77.576832,43.7943341 C67.1359407,50.3196518 57.0928541,57.3445224 46.9755503,64.34864 C46.2734545,64.8674635 44.9256681,66.5721694 44.256228,65.6293929 C43.4576497,64.5784047 42.6575871,63.4859106 41.8634619,62.4052753 C38.5489168,57.9122635 35.2373403,53.4281459 31.9198265,48.9455106 C23.5674103,37.5462165 15.167495,26.1928753 6.78836059,14.83064 C4.59004383,11.8348047 2.40805488,8.85527529 0.209738122,5.88315765 C20.0064637,-7.96053647 39.8907657,-21.6411718 61.0263716,-33.3888188 C73.6017529,-40.4003482 86.2572888,-47.0590776 99.1874287,-53.3724188 C111.112666,-59.2484659 123.333289,-64.4648659 135.674143,-69.4114776 C160.952559,-79.5641129 186.884088,-88.0283482 213.256467,-94.7997365 C241.49467,-101.993595 270.093569,-106.763807 298.998243,-110.134678 C346.828331,-115.689054 395.678165,-114.821878 443.385053,-108.600442 C501.232994,-101.044889 557.909786,-85.7055012 611.367031,-62.3376894 C660.521156,-40.8569129 706.831274,-13.1724894 748.750696,20.3049694 C768.689919,36.2032047 787.913687,53.1939341 805.532876,71.6284753" id="Fill-57" fill="#00BDF1" mask="url(#mask-25)"></path>
                </g>
                <g id="Group-62" transform="translate(434.000000, 676.000000)">
                    <mask id="mask-27" fill="white">
                        <use xlink:href="#path-26"></use>
                    </mask>
                    <g id="Clip-61"></g>
                    <path d="M163.439314,263.685185 C115.379402,215.858215 77.8211356,159.159276 51.4875883,96.7956394 C38.4529575,65.9404879 28.8094984,33.5262455 22.4814888,0.458669697 L0.40026886,3.10021515 C2.9822512,16.9375182 6.03489968,30.7406697 9.80765249,44.2691242 C14.6316091,61.6284879 20.0078933,79.2981848 26.9238644,95.9849121 C40.9636717,129.76967 56.7584551,163.3317 77.5212159,193.570639 C88.0421629,208.9017 98.7323716,223.94173 110.393608,238.421973 C121.875189,252.630488 134.238712,266.124791 147.176834,278.998427 C172.454723,304.233427 200.595213,326.523973 230.417925,346.129912 C287.739715,383.827245 353.570614,409.763094 420.976834,422.177912 C489.159579,434.769427 559.178961,433.878518 627.026152,419.763548 C661.902957,412.521942 695.923062,401.269761 728.51929,386.954336 C744.850068,379.798852 760.727998,371.712367 776.276312,363.00967 C791.759298,354.304003 806.537026,344.604973 821.181128,334.568882 C828.587067,329.876761 835.376834,324.072488 842.387829,318.863639 C849.467123,313.518185 856.133656,307.589185 862.923423,301.914094 C875.932813,290.997488 887.742524,278.759367 899.705165,266.72467 C905.158656,261.245579 910.134057,255.295791 915.260903,249.479639 C917.489514,246.964306 919.854723,244.549942 921.917043,241.865336 C923.027636,240.420579 923.144932,240.710124 921.894771,239.664791 C916.512548,235.213215 911.125871,230.726003 905.767404,226.281852 C904.927035,227.391033 904.086665,228.49873 903.160181,229.511397 C893.121778,240.788821 883.035863,251.907367 872.434739,262.688852 C860.216722,275.081397 846.813872,286.196973 833.51941,297.419458 C820.085381,308.762215 805.168086,318.477579 790.666521,328.378548 C775.416641,337.654397 760.165277,346.778791 744.226473,354.859336 C680.931529,387.000367 611.154161,405.0487 540.282532,408.313882 C471.771657,411.497397 402.28827,400.267488 338.176713,375.883306 C273.092644,351.087821 212.871136,312.847033 163.439314,263.685185" id="Fill-60" fill="#00BDF1" mask="url(#mask-27)"></path>
                </g>
                <g id="Group-65" transform="translate(383.000000, 680.000000)">
                    <mask id="mask-29" fill="white">
                        <use xlink:href="#path-28"></use>
                    </mask>
                    <g id="Clip-64"></g>
                    <path d="M1033.10537,241.143555 C1030.95518,239.574797 1028.82727,237.992693 1026.68599,236.412072 C1019.78995,231.363279 1012.89391,226.324866 1006.00827,221.27459 C995.723606,213.716969 985.446368,206.157866 975.16022,198.635831 C971.682501,203.496314 968.005801,208.15959 964.260794,212.842141 L993.387803,235.826383 C973.636676,260.589934 951.93286,283.480762 928.347631,304.654555 C903.051755,327.343728 874.927078,347.304624 845.757006,364.698866 C815.393047,382.787038 783.281318,397.924521 749.98758,409.752486 C732.610866,415.945969 714.876282,421.270555 696.942717,425.658038 C679.61352,429.904659 662.110586,432.954693 644.457674,435.625141 C631.593678,437.583866 618.483183,439.149659 605.487028,439.719038 C588.110313,440.496003 570.72172,441.556176 553.35243,440.682831 C541.131411,440.083797 529.027702,439.400245 516.854202,438.279279 C504.830679,437.17759 492.841311,435.53321 480.89946,433.706452 C456.347537,429.947659 432.25149,423.478383 408.483613,416.525728 C368.210679,404.768934 329.676605,386.640728 293.482788,365.647831 C265.427903,349.379003 238.636698,330.245486 214.365428,308.775141 C203.994639,299.613176 194.027753,290.110176 184.092049,280.533038 C172.074467,268.924521 161.262652,255.895521 150.49984,243.11859 C130.6121,219.510107 113.067588,193.257866 97.9108515,166.405107 C80.4034627,135.470314 65.7530897,102.671693 54.6234986,68.8914862 C47.2567339,46.5196241 41.4328171,23.6124862 37.0968056,0.414727586 L0.246647776,4.81555517 C9.49928049,55.1122103 25.4281829,104.025452 47.6888501,150.269728 C72.4590581,201.631003 104.630184,249.721314 143.48649,291.514348 C191.050457,342.668038 246.845421,385.211348 309.422085,416.542038 C365.582344,444.640314 426.412724,463.544003 488.613699,472.422762 C503.751131,474.581659 518.986569,476.119279 534.242796,477.068245 C549.433685,477.944555 564.554783,477.811107 579.747157,477.9149 C597.759424,477.999417 615.782085,476.114831 633.685952,474.420038 C652.021935,472.651107 670.207939,469.239279 688.260299,465.701417 C723.950722,458.665728 759.108054,447.294452 792.54583,433.156348 C808.366332,426.480969 823.978943,419.153176 839.089646,410.995038 C846.691031,406.915969 854.307265,402.859141 861.748276,398.425693 C869.327387,393.811348 877.248032,389.460934 884.54352,384.400279 C892.042444,379.164659 899.649768,374.114383 907.243728,368.984038 C914.426361,363.515624 921.684725,358.13321 928.859933,352.644038 C942.85545,341.845107 955.845665,329.787314 968.782423,317.772521 C992.823527,295.268693 1015.26981,270.11221 1034.44775,243.299486 C1035.33723,242.070279 1034.23689,241.979831 1033.10537,241.143555" id="Fill-63" fill="#00BDF1" mask="url(#mask-29)"></path>
                </g>
            </g>
        </g>
    </g>
</svg>
