<?xml version="1.0" encoding="UTF-8"?>
<svg class="svg-logo" viewBox="0 0 1426 544" version="1.1" xmlns="http://www.w3.org/2000/svg" xmlns:xlink="http://www.w3.org/1999/xlink">
    <!-- Generator: Sketch 48.1 (47250) - http://www.bohemiancoding.com/sketch -->
    <title>Page 1</title>
    <desc>Created with Sketch.</desc>
    <defs>
        <polygon id="path-1" points="0 0.733911377 78.4199609 0.733911377 78.4199609 188.448115 0 188.448115"></polygon>
        <polygon id="path-3" points="0.962889536 0.604263473 412.269549 0.604263473 412.269549 544 0.962889536 544"></polygon>
    </defs>
    <g id="Pausa" stroke="none" stroke-width="1" fill="none" fill-rule="evenodd" transform="translate(-247.000000, -188.000000)">
        <g id="Page-1" transform="translate(247.000000, 188.000000)">
            <polygon id="Fill-1" fill="#00BDF1" points="461 201 475.855261 75 507.93445 75 512.738327 141.343569 532.251701 75 563 75 552.208705 201 531.51179 201 537.721023 119.001526 516.434714 201 497.661251 201 492.412159 118.240772 481.917146 201"></polygon>
            <polygon id="Fill-2" fill="#00BDF1" points="575 201 588.08016 75 618 75 604.91984 201"></polygon>
            <polygon id="Fill-3" fill="#00BDF1" points="622 201 635.164589 75 656.576305 75 674.205858 130.096798 679.955331 75 705 75 691.835411 201 671.255706 201 654.307332 140.735943 647.951286 201"></polygon>
            <g id="Group-36">
                <path d="M765.464063,197.643181 C760.328674,199.314271 754.140498,200.151444 746.906043,200.151444 C739.666707,200.151444 733.670538,199.314271 728.914283,197.643181 C724.1564,195.972091 720.513138,193.387277 717.982869,189.893624 C715.452599,186.398343 713.833552,182.245049 713.125728,177.432115 C712.771002,175.000402 712.567604,172.291804 712.518789,169.301432 C712.518789,166.413672 712.694524,163.299516 713.04925,159.955708 L722.234697,72.2723545 L752.370123,72.2723545 L742.652587,164.895684 C742.400374,166.413672 742.312506,167.972378 742.387357,169.566917 C742.463834,171.163085 742.652587,172.619181 742.958498,173.936834 C743.261154,175.254486 743.94457,176.342486 745.007121,177.204091 C746.069671,178.065696 747.48532,178.495684 749.25895,178.495684 C750.674599,178.495684 751.927529,178.204139 753.016115,177.622678 C754.1047,177.039588 754.963853,176.331085 755.596827,175.493911 C756.228174,174.658366 756.77328,173.570366 757.227264,172.226654 C757.684502,170.88457 758.000176,169.693959 758.177539,168.65645 C758.354902,167.617313 758.51762,166.36481 758.670575,164.895684 L768.311633,72.2723545 L798.52191,72.2723545 L789.33809,159.955708 C788.628638,166.794798 787.401742,172.619181 785.655775,177.432115 C783.911435,182.245049 781.392556,186.398343 778.10402,189.893624 C774.813856,193.387277 770.599452,195.972091 765.464063,197.643181" id="Fill-4" fill="#00BDF1"></path>
                <polygon id="Fill-6" fill="#00BDF1" points="814.160276 198.250702 825.016839 94.687109 806.494617 94.687109 808.847524 72.2723545 876.178722 72.2723545 873.825815 94.687109 855.303593 94.687109 844.448657 198.250702"></polygon>
                <path d="M913.145061,179.103531 C914.866621,179.103531 916.33434,178.724034 917.548218,177.963411 C918.762096,177.202788 919.686336,176.101758 920.31931,174.658692 C920.952284,173.213998 921.393251,171.884944 921.648719,170.669902 C921.900932,169.453231 922.128738,167.959674 922.332135,166.185974 L928.782288,104.261183 C929.036129,102.844177 929.137014,101.373423 929.086571,99.853806 C929.036129,98.3341892 928.858766,96.9546443 928.55611,95.7135425 C928.251827,94.4724407 927.56841,93.4463329 926.505859,92.6352192 C925.443309,91.8257341 924.05044,91.4201772 922.332135,91.4201772 C920.610576,91.4201772 919.154247,91.7882731 917.966404,92.5212072 C916.775306,93.2557701 915.890119,94.3453988 915.309214,95.7884647 C914.726683,97.2331593 914.310124,98.550812 914.057911,99.739794 C913.802443,100.930405 913.600672,102.436992 913.449344,104.261183 L906.921087,166.185974 C906.769759,167.656728 906.668874,168.85874 906.616804,169.795267 C906.566361,170.733423 906.603786,171.847483 906.732334,173.139075 C906.857627,174.430668 907.135875,175.469806 907.565451,176.253231 C907.996655,177.039914 908.678444,177.710956 909.615702,178.267986 C910.551332,178.825016 911.727785,179.103531 913.145061,179.103531 M910.868632,200.150141 C903.733436,200.150141 897.73564,199.225016 892.878499,197.376393 C888.019731,195.52777 884.311382,192.780081 881.756705,189.133327 C879.202027,185.484944 877.517893,181.180177 876.709183,176.21577 C876.302388,173.582093 876.100617,170.695962 876.100617,167.554117 C876.100617,164.716848 876.279607,161.703674 876.634333,158.511339 L881.491474,112.01074 C882.199298,105.22377 883.478264,99.3342371 885.325116,94.3453988 C887.171969,89.3565605 889.765698,85.0257341 893.106305,81.3529198 C896.445284,77.6801054 900.734538,74.930788 905.972439,73.1082251 C911.210341,71.2840335 917.39689,70.3735665 924.532087,70.3735665 C931.667283,70.3735665 937.676469,71.2986922 942.559645,73.1456862 C947.442821,74.9959377 951.201613,77.7436263 953.832768,81.3903808 C956.463922,85.0371353 958.185482,89.3435305 958.995819,94.306309 C959.449803,96.9921054 959.679236,99.9303569 959.679236,103.121063 C959.679236,105.907842 959.500246,108.870525 959.147147,112.01074 L954.288379,158.511339 C952.82066,172.290501 948.720159,182.673734 941.991758,189.664297 C935.260103,196.65486 924.885185,200.150141 910.868632,200.150141" id="Fill-8" fill="#00BDF1"></path>
                <g id="Group-12" transform="translate(0.000000, 231.281437)">
                    <mask id="mask-2" fill="white">
                        <use xlink:href="#path-1"></use>
                    </mask>
                    <g id="Clip-11"></g>
                    <polygon id="Fill-10" fill="#FEFEFE" mask="url(#mask-2)" points="48.7661811 0.733911377 48.7661811 150.882798 78.4199609 150.882798 78.4199609 188.448115 -0.000488154847 188.448115 -0.000488154847 0.733911377"></polygon>
                </g>
                <polygon id="Fill-13" fill="#FEFEFE" points="90.2339591 232.015349 171.549166 232.015349 171.549166 269.580666 139.000628 269.580666 139.000628 305.176834 169.464745 305.176834 169.464745 340.887013 139.000628 340.887013 139.000628 382.164235 174.792142 382.164235 174.792142 419.729552 90.2339591 419.729552"></polygon>
                <path d="M237.575038,264.132196 L237.575038,387.612053 C244.601214,387.612053 248.926266,386.20319 250.548567,383.38058 C252.169241,380.559598 252.981205,372.886592 252.981205,360.366448 L252.981205,287.437873 C252.981205,278.934208 252.709466,273.486065 252.169241,271.088556 C251.629017,268.694304 250.392358,266.935262 248.462519,265.813059 C246.53268,264.694113 242.902435,264.132196 237.575038,264.132196 Z M188.808369,232.015023 L225.296317,232.015023 C248.848161,232.015023 264.776654,233.098137 273.078541,235.261107 C281.377173,237.427334 287.690642,240.982879 292.017321,245.92937 C296.340746,250.875861 299.04187,256.384268 300.123946,262.451334 C301.204396,268.520029 301.746248,280.442424 301.746248,298.220149 L301.746248,363.961083 C301.746248,380.812053 300.953809,392.078065 299.372188,397.75749 C297.788939,403.438544 295.029237,407.885011 291.089827,411.092005 C287.152045,414.298999 282.286768,416.540149 276.493997,417.815454 C270.702854,419.092388 261.976272,419.729226 250.317507,419.729226 L188.808369,419.729226 L188.808369,232.015023 Z" id="Fill-15" fill="#FEFEFE"></path>
                <polygon id="Fill-17" fill="#FEFEFE" points="319.932131 232.015349 401.247338 232.015349 401.247338 269.580666 368.6988 269.580666 368.6988 305.176834 399.162917 305.176834 399.162917 340.887013 368.6988 340.887013 368.6988 382.164235 404.490314 382.164235 404.490314 419.729552 319.932131 419.729552"></polygon>
                <path d="M521.829884,288.828168 L476.538877,288.828168 L476.538877,274.915449 C476.538877,268.421653 475.9596,264.287904 474.801046,262.509317 C473.642492,260.732359 471.712653,259.843066 469.009903,259.843066 C466.074465,259.843066 463.854987,261.04182 462.349843,263.440958 C460.844699,265.838467 460.091313,269.472192 460.091313,274.345389 C460.091313,280.611162 460.935821,285.329629 462.629719,288.50079 C464.245511,291.673581 468.840676,295.499497 476.41033,299.97691 C498.118576,312.873293 511.790166,323.456862 517.428355,331.727617 C523.064916,339.998371 525.884824,353.332886 525.884824,371.727904 C525.884824,385.101509 524.319474,394.958659 521.192029,401.294467 C518.06621,407.633533 512.022853,412.94812 503.065212,417.236599 C494.105943,421.526707 483.680583,423.67176 471.790758,423.67176 C458.739125,423.67176 447.597804,421.197701 438.371677,416.25121 C429.143923,411.306347 423.100566,405.004743 420.243233,397.351281 C417.3859,389.699449 415.958861,378.840623 415.958861,364.771545 L415.958861,352.482683 L461.249868,352.482683 L461.249868,375.322539 C461.249868,382.357078 461.886096,386.880096 463.16018,388.888335 C464.434264,390.898204 466.692794,391.903138 469.93577,391.903138 C473.180372,391.903138 475.591857,390.626204 477.176733,388.077222 C478.758355,385.526611 479.550793,381.739784 479.550793,376.713485 C479.550793,365.660838 478.044022,358.435737 475.033733,355.033293 C471.943713,351.632479 464.336633,345.951425 452.214121,337.988503 C440.089982,329.950659 432.059835,324.116503 428.120425,320.48115 C424.182643,316.849054 420.918514,311.826012 418.332921,305.408766 C415.744073,298.99315 414.45209,290.798946 414.45209,280.827784 C414.45209,266.450874 416.285925,255.940599 419.955222,249.292072 C423.621265,242.645174 429.549092,237.446228 437.733821,233.696862 C445.918551,229.949126 455.805314,228.072814 467.387601,228.072814 C480.051965,228.072814 490.845069,230.123401 499.763658,234.21806 C508.682247,238.315976 514.590548,243.475832 517.486933,249.697629 C520.381691,255.919425 521.829884,266.491593 521.829884,281.407617 L521.829884,288.828168 Z" id="Fill-19" fill="#FEFEFE"></path>
                <path d="M691.641708,232.015349 L691.641708,419.729552 L649.014399,419.729552 L648.957448,293.001983 L631.987558,419.729552 L601.754501,419.729552 L583.858744,295.901145 L583.800166,419.729552 L541.172857,419.729552 L541.172857,232.015349 L604.27338,232.015349 C606.146268,243.302534 608.074479,256.602846 610.061269,271.921169 L616.986559,319.669384 L628.192968,232.015349 L691.641708,232.015349 Z" id="Fill-21" fill="#FEFEFE"></path>
                <path d="M769.670168,352.714127 C767.200105,331.452522 764.72516,305.172762 762.242079,273.871588 C757.274289,309.816307 754.153353,336.097696 752.88415,352.714127 L769.670168,352.714127 Z M795.514713,232.016163 L823.401372,419.730366 L773.565644,419.730366 L770.947507,385.990965 L753.50248,385.990965 L750.571923,419.730366 L700.155291,419.730366 L725.030035,232.016163 L795.514713,232.016163 Z" id="Fill-23" fill="#FEFEFE"></path>
                <polygon id="Fill-25" fill="#FEFEFE" points="916.822169 232.015349 916.822169 269.580666 887.863196 269.580666 887.863196 419.729552 839.098154 419.729552 839.098154 269.580666 810.256339 269.580666 810.256339 232.015349"></polygon>
                <polygon id="Fill-27" fill="#FEFEFE" points="976.70689 232.015349 976.70689 382.164235 1006.36067 382.164235 1006.36067 419.729552 927.940221 419.729552 927.940221 232.015349"></polygon>
                <path d="M1077.25068,280.248604 C1077.25068,271.515286 1076.76741,265.928699 1075.80249,263.493729 C1074.83757,261.058759 1072.84915,259.842089 1069.83723,259.842089 C1067.28907,259.842089 1065.3397,260.827478 1063.98914,262.798256 C1062.63695,264.770663 1061.96167,270.586903 1061.96167,280.248604 L1061.96167,367.90264 C1061.96167,378.800556 1062.40426,385.525634 1063.29433,388.077873 C1064.18115,390.626855 1066.24604,391.90216 1069.48902,391.90216 C1072.8101,391.90216 1074.93357,390.436292 1075.86107,387.496412 C1076.78856,384.559789 1077.25068,377.56434 1077.25068,366.510065 L1077.25068,280.248604 Z M1126.01735,341.930711 C1126.01735,360.79155 1125.5715,374.14561 1124.68469,381.989634 C1123.79624,389.836915 1121.01539,397.005011 1116.34375,403.497178 C1111.67211,409.990975 1105.35864,414.974927 1097.40659,418.453921 C1089.4513,421.932915 1080.18612,423.670783 1069.60617,423.670783 C1059.56646,423.670783 1050.55186,422.027382 1042.55914,418.743837 C1034.56805,415.458663 1028.13742,410.531717 1023.27214,403.96137 C1018.40849,397.391023 1015.51211,390.242472 1014.58461,382.51246 C1013.65875,374.782448 1013.195,361.255741 1013.195,341.930711 L1013.195,309.815166 C1013.195,290.954328 1013.63759,277.601897 1014.52766,269.756244 C1015.41448,261.910592 1018.19371,254.740867 1022.86698,248.248699 C1027.53862,241.754903 1033.85209,236.769322 1041.80576,233.290328 C1049.7578,229.812963 1059.02623,228.073466 1069.60617,228.073466 C1079.64427,228.073466 1088.66211,229.716867 1096.65321,233.000412 C1104.64593,236.287214 1111.07493,241.215789 1115.93858,247.784508 C1120.80548,254.354855 1123.70024,261.505035 1124.62611,269.233418 C1125.55523,276.96343 1126.01735,290.491765 1126.01735,309.815166 L1126.01735,341.930711 Z" id="Fill-29" fill="#FEFEFE"></path>
                <polygon id="Fill-31" fill="#FEFEFE" points="1253.08487 232.015349 1253.08487 419.729552 1210.34203 419.729552 1184.97588 334.393217 1184.97588 419.729552 1144.20193 419.729552 1144.20193 232.015349 1184.97588 232.015349 1212.31092 316.538941 1212.31092 232.015349"></polygon>
                <g id="Group-35" transform="translate(1013.734900, 0.000000)">
                    <mask id="mask-4" fill="white">
                        <use xlink:href="#path-3"></use>
                    </mask>
                    <g id="Clip-34"></g>
                    <path d="M411.253211,304.586903 C408.306383,271.928987 398.310599,241.556196 381.664518,213.361035 C374.037912,200.445107 365.146986,188.451047 354.986856,177.41143 C354.428732,176.80228 353.906407,176.160556 353.162784,175.295693 C353.896643,174.456891 354.576806,173.626232 355.312293,172.847693 C362.416573,165.329418 369.540379,157.830687 376.638151,150.307526 C383.929557,142.579143 383.711514,132.510256 376.057246,125.229777 C369.234469,118.73761 362.496305,112.14446 355.448976,105.903119 C350.193175,101.248172 343.94642,100.717202 337.623188,103.570759 C335.50785,104.526831 333.569876,106.155574 331.93293,107.847837 C323.460189,116.610472 315.109486,125.493634 306.719732,134.337705 C306.090012,135.003861 305.491209,135.699334 305.227605,135.994137 C294.912893,131.125825 285.070064,126.143502 274.95875,121.789873 C262.079598,116.244005 248.586998,112.536987 234.821032,109.882137 C233.460707,109.619909 232.653624,109.352795 232.66176,107.724053 C232.718711,96.728412 232.699185,85.7311425 232.717084,74.7355018 C232.717084,74.4797892 232.847259,74.2240766 233.000214,73.6703042 L235.934025,73.6703042 C245.348904,73.6703042 254.765411,73.6800766 264.181918,73.6670467 C275.442024,73.652388 282.567457,66.586903 282.586983,55.3958132 C282.60651,43.1981605 282.60651,31.0021365 282.586983,18.8044838 C282.567457,7.6818012 275.503857,0.608172455 264.443895,0.606543713 C217.086366,0.603286228 169.728837,0.603286228 122.372935,0.606543713 C111.482201,0.608172455 104.345377,7.71437605 104.322596,18.613921 C104.296561,30.904412 104.299816,43.1932743 104.320969,55.4821365 C104.340495,66.5103521 111.495218,73.6442443 122.540535,73.665418 C131.864293,73.6849629 141.18805,73.6703042 150.511808,73.6703042 L153.609964,73.6703042 C153.709222,74.5351665 153.844278,75.1638611 153.844278,75.7909269 C153.858923,86.3256335 153.886585,96.8603401 153.792208,107.393418 C153.7857,108.211047 153.004652,109.626424 152.384695,109.74858 C127.029932,114.719502 103.271436,123.832316 80.8504839,137.228723 C75.6792969,132.35064 70.5211273,127.501873 65.382484,122.630304 C60.1559727,117.675669 54.9685139,112.677059 49.727358,107.735454 C41.5767992,100.049418 31.8332285,100.235095 24.0780751,108.295741 C17.9956657,114.616891 12.0076329,121.030879 6.00170113,127.425322 C-0.886163766,134.757921 -0.716936753,144.927789 6.53704428,151.929753 C14.4418984,159.563669 22.4671641,167.072172 30.4517503,174.623023 C31.1156409,175.250089 31.8755352,175.777801 32.5003734,176.279454 C27.4837688,182.493107 22.537133,188.218137 18.0282094,194.272172 C16.2220365,196.695741 14.5427838,199.176316 12.8456321,201.650376 L62.9189292,201.650376 C95.6253039,166.987478 141.9333,145.305657 193.334378,145.268196 C292.516053,145.194903 372.978616,225.679214 372.983498,324.967358 C372.986752,424.463981 292.498154,504.702352 192.743711,504.648604 C166.306871,504.633945 141.201068,498.757442 118.581599,488.317202 L108.366145,526.605681 C109.711826,527.188771 111.024962,527.804436 112.388541,528.366352 C131.727609,536.345562 151.93722,541.125921 172.810721,542.958256 C176.004881,543.2384 179.187651,543.648843 182.375302,544.000651 L204.53265,544.000651 C207.720302,543.648843 210.903071,543.243286 214.095604,542.956628 C240.612175,540.577035 265.91975,533.654879 289.631058,521.607071 C347.498561,492.201753 385.791054,446.280987 404.152185,383.903406 C408.513035,369.088364 410.968454,353.901969 411.783672,338.463119 C411.835742,337.472843 412.1026,336.493969 412.2702,335.510208 L412.2702,313.883765 C411.928492,310.785897 411.533086,307.691286 411.253211,304.586903 Z M278.907923,441.166735 L292.80081,458.191981 L299.412054,452.787813 L285.515912,435.760939 C283.366404,437.62422 281.16808,439.433753 278.907923,441.166735 Z M258.447726,454.234137 L269.192014,473.39955 L276.634749,469.218568 L265.898596,450.067813 C263.465958,451.536939 260.973114,452.911598 258.447726,454.234137 Z M296.847614,424.796244 L313.431861,439.134065 L319.011471,432.667957 L302.454886,418.354568 C300.651967,420.559885 298.777452,422.70331 296.847614,424.796244 Z M236.054436,463.612436 L243.314926,484.299095 L251.367854,481.466711 L244.095974,460.750735 C241.450174,461.778472 238.773459,462.744316 236.054436,463.612436 Z M165.714577,190.452771 C168.516586,189.9104 171.323476,189.433178 174.136875,189.065083 L170.809286,169.407789 L162.395124,170.836196 L165.714577,190.452771 Z M216.505462,490.48343 L224.919624,489.056651 L221.32355,467.809705 C218.52805,468.392795 215.726041,468.884675 212.917524,469.291861 L216.505462,490.48343 Z M239.196526,195.176125 C241.894395,196.109394 244.562975,197.102927 247.182739,198.192556 L254.127556,179.507622 L246.128325,176.528651 L239.196526,195.176125 Z M133.187192,480.385226 L141.186423,483.364196 L148.692617,463.16616 C145.981731,462.270352 143.309897,461.293107 140.67386,460.23931 L133.187192,480.385226 Z M334.264683,325.674232 C334.287463,326.737801 334.344415,327.793226 334.344415,328.86331 C334.344415,330.659813 334.276073,332.4384 334.209358,334.218616 L355.605185,334.218616 L355.605185,325.674232 L334.264683,325.674232 Z M311.726573,405.58034 L330.466838,416.795861 L334.847214,409.461634 L316.147629,398.272172 C314.746625,400.757634 313.27077,403.192604 311.726573,405.58034 Z M323.157533,384.102113 L343.391551,391.848412 L346.440892,383.869202 L326.231281,376.131047 C325.277752,378.823358 324.267271,381.487981 323.157533,384.102113 Z M330.653964,360.928364 L351.820358,365.044196 L353.447541,356.656172 L332.333217,352.551741 C331.858079,355.374352 331.293447,358.166017 330.653964,360.928364 Z M305.068141,242.699574 L320.868086,229.537705 L315.408888,222.970616 L299.656131,236.091765 C301.524137,238.240077 303.331937,240.440508 305.068141,242.699574 Z M318.27273,263.360172 L336.275881,253.029059 L332.032188,245.61828 L314.108769,255.90216 C315.576488,258.337131 316.94983,260.833993 318.27273,263.360172 Z M333.034532,309.829825 L353.909661,306.166783 L352.435433,297.752699 L331.659563,301.397825 C332.206296,304.178089 332.653772,306.992556 333.034532,309.829825 Z M327.707136,285.960604 L347.40093,278.831598 L344.498035,270.797011 L324.856312,277.908101 C325.87981,280.558065 326.843102,283.235717 327.707136,285.960604 Z M160.042218,488.576172 L168.436854,490.126735 L172.373009,468.790208 C169.544965,468.374879 166.741329,467.882999 163.96861,467.303166 L160.042218,488.576172 Z M279.168272,192.216699 L271.802016,187.900532 L261.669548,205.222208 C264.160765,206.611526 266.596658,208.08228 268.991871,209.613298 L279.168272,192.216699 Z M227.27253,171.316675 L218.879521,169.764484 L215.296465,189.177466 C218.121254,189.62537 220.911873,190.175885 223.678084,190.788292 L227.27253,171.316675 Z M301.639667,209.062783 L295.129309,203.538089 L282.023978,219.009514 C284.23532,220.806017 286.394591,222.659526 288.49203,224.584699 L301.639667,209.062783 Z M185.602005,495.666089 L199.80243,495.666089 L199.80243,455.294448 L185.602005,455.294448 L185.602005,495.666089 Z M185.602005,201.12755 L199.80243,201.12755 L199.80243,164.202328 L185.602005,164.202328 L185.602005,201.12755 Z" id="Fill-33" fill="#00BDF1" mask="url(#mask-4)"></path>
                </g>
            </g>
        </g>
    </g>
</svg>
